<svg version="1.2" xmlns="http://www.w3.org/2000/svg" viewBox="0 0 92 81" width="92" height="81">
	<title>target-svg</title>
	<style>
		.s0 { fill: #303646 } 
		.s1 { fill: #ffffff } 
		.s2 { fill: #cd2b31 } 
		.s3 { fill: #bab3b4 } 
		.s4 { opacity: .1;fill: #1f1f39 } 
		.s5 { opacity: .2;fill: #1f1f39 } 
		.s6 { fill: #543237 } 
		.s7 { opacity: .5;fill: #1f1f39 } 
	</style>
	<path id="Layer" class="s0" d="m59.3 80.4c-7.9-2.4-9.3-20.5-3.1-40.5c6.1-20 17.4-34.2 25.3-31.8c7.8 2.4 9.2 20.6 3.1 40.5c-6.1 20-17.4 34.2-25.3 31.8z" />
	<path id="Layer" class="s1" d="m58 80c-7.3-2.2-8.3-20.2-2.1-40.2c6.1-20 17-34.3 24.3-32.1c7.3 2.2 8.2 20.2 2.1 40.2c-6.2 20-17 34.3-24.3 32.1z" />
	<path id="Layer" class="s2" d="m58.6 75.6c-6.4-2-7.3-17.9-1.9-35.5c5.5-17.7 15.1-30.4 21.5-28.4c6.5 2 7.3 17.9 1.9 35.5c-5.4 17.7-15.1 30.4-21.5 28.4z" />
	<path id="Layer" class="s1" d="m59.9 69.5c-5.3-1.6-6-14.6-1.6-28.9c4.4-14.4 12.3-24.8 17.5-23.1c5.3 1.6 5.9 14.5 1.5 28.9c-4.4 14.3-12.2 24.7-17.4 23.1z" />
	<path id="Layer" class="s2" d="m61.4 63.8c-4.3-1.3-4.9-11.8-1.3-23.5c3.6-11.6 10-20 14.2-18.7c4.3 1.3 4.8 11.8 1.3 23.5c-3.6 11.7-10 20-14.2 18.7z" />
	<path id="Layer" class="s1" d="m62.3 57.2c-2.8-0.8-3.2-7.9-0.8-15.7c2.4-7.8 6.7-13.4 9.5-12.5c2.9 0.9 3.2 7.9 0.8 15.7c-2.4 7.8-6.6 13.4-9.5 12.5z" />
	<path id="Layer" class="s2" d="m65.2 49.7c-1.5-0.4-1.6-4-0.4-7.9c1.2-4 3.3-6.8 4.8-6.4c1.4 0.5 1.6 4 0.4 8c-1.2 3.9-3.4 6.7-4.8 6.3z" />
	<path id="Layer" class="s3" d="m62.8 41c-0.1 0.9-3.5 1.9-3.5 1.4c-0.1-0.5 2.5-3.5 3.4-4.6c0 0 0.3 2.4 0.1 3.2z" />
	<path id="Layer" class="s1" d="m0.9 9.4c0.3-0.1 4.2-1.5 5-1.3q0.9 0.3 1.6 0.9c-2.5 1.3-4 2-5.2 1.4c-0.6-0.3-1-0.5-1.3-0.7c-0.2-0.1-0.3-0.2-0.1-0.3z" />
	<path id="Layer" class="s4" d="m0.9 9.4c0.3-0.1 4.2-1.5 5-1.3c-0.2 0.5-3.5 2.2-4.9 1.6c-0.2-0.1-0.3-0.2-0.1-0.3z" />
	<path id="Layer" class="s1" d="m-0.6 8.5c0.3-0.1 4.2-1.5 5-1.3q1 0.3 1.6 0.9c-2.5 1.3-4 2.1-5.2 1.4c-0.6-0.3-1-0.6-1.3-0.7c-0.2-0.1-0.3-0.2-0.1-0.3z" />
	<path id="Layer" class="s4" d="m-0.6 8.5c0.3-0.1 4.2-1.5 5-1.3c-0.2 0.5-2 1.7-4.9 1.6q-0.3-0.2-0.1-0.3z" />
	<path id="Layer" class="s1" d="m-2.3 7.5q1-0.1 1.9-0.5c1.3-0.5 2.7-1 3.1-0.9q1 0.4 1.7 1.1c-2.5 1.3-4.1 1.9-5.3 1.2c-0.6-0.3-1-0.5-1.3-0.7h-0.1q-0.2-0.2 0-0.2z" />
	<path id="Layer" class="s4" d="m-2.3 7.5q1-0.1 1.9-0.5c1.3-0.5 2.7-0.9 3.2-0.8c-0.3 0.5-2.7 1.5-4.9 1.6l-0.2-0.1q-0.2-0.2 0-0.2z" />
	<path id="Layer" class="s1" d="m-4 6.4c0.3-0.1 4.2-1.5 5-1.3q1 0.3 1.7 1c-2.5 1.3-4.1 1.9-5.3 1.3c-0.6-0.4-1-0.6-1.3-0.7c-0.2-0.2-0.3-0.2-0.1-0.3z" />
	<path id="Layer" class="s5" d="m-4 6.4c0.3-0.1 4.2-1.5 5-1.3c-0.2 0.5-3 0.8-4.9 1.6c-0.2-0.2-0.3-0.2-0.1-0.3z" />
	<path id="Layer" class="s6" d="m1.5 3c1.2 0.2 60.8 37.4 60.8 37.4q0.1 0 0.2 0.1c0.6 0.6 0 1.3-0.5 1.6q-0.1 0.1-0.3 0.1q-0.1 0-0.2 0c-0.1-0.2-60-36.4-61.2-37.4q-0.3-0.3-0.4-0.7c-0.3-0.7 0.7-1.2 1.6-1.1z" />
	<path id="Layer" class="s1" d="m6.1 1.3c0.3 0.2 0.7 0.5 1.2 0.9c1.1 0.7 1.1 2.4 1.1 5.2q-0.8-0.3-1.5-1c-0.5-0.7-1.1-4.8-1.1-5.1c0-0.2 0.1-0.1 0.3 0z" />
	<path id="Layer" class="s4" d="m6.1 1.3c1.2 0.9 1.2 4.7 0.8 5.1c-0.5-0.7-1.1-4.8-1.1-5.1q0-0.2 0.3 0z" />
	<path id="Layer" class="s1" d="m4.6 0.4c0.3 0.1 0.7 0.4 1.2 0.8c1.1 0.7 1.2 2.5 1.2 5.3q-0.9-0.3-1.6-1c-0.5-0.7-1.1-4.8-1.1-5.1c0-0.2 0.1-0.2 0.3 0z" />
	<path id="Layer" class="s4" d="m4.6 0.4c1.4 2.5 1.2 4.6 0.8 5.1c-0.5-0.7-1.1-4.8-1.1-5.1q0-0.3 0.3 0z" />
	<path id="Layer" class="s1" d="m2.8-0.7h0.1c0.2 0.2 0.6 0.5 1.2 0.9c1.1 0.7 1.3 2.5 1.3 5.3q-1-0.3-1.7-1.1c-0.3-0.3-0.5-1.7-0.6-3.1q0 0 0-0.1q-0.1-1-0.5-1.9q0-0.2 0.2 0z" />
	<path id="Layer" class="s4" d="m2.8-0.7l0.1 0.1c1 1.9 1.2 4.6 0.8 5.1c-0.2-0.4-0.5-1.8-0.6-3.2q0 0 0-0.1q-0.1-1-0.5-1.9q0-0.2 0.2 0z" />
	<path id="Layer" class="s1" d="m1.2-1.7c0.2 0.2 0.6 0.5 1.2 0.8c1.1 0.8 1.3 2.6 1.3 5.3q-1-0.3-1.7-1c-0.6-0.7-1.1-4.8-1.1-5.1c0-0.2 0-0.1 0.3 0z" />
	<path id="Layer" class="s5" d="m1.2-1.7c0.2 2 1.1 4.7 0.8 5.1c-0.6-0.7-1.1-4.8-1.1-5.1q0-0.2 0.3 0z" />
	<path id="Layer" class="s7" d="m62 42.1c-0.2 0.1-0.4 0.2-0.5 0.1c-0.1-0.2-60-36.4-61.2-37.4q-0.3-0.3-0.4-0.7c5.5 3.2 55.1 33.5 62.1 38z" />
	<path id="Layer" class="s1" d="m61.5 41.1h0.1c0.5-1 0.7-3.2 1.1-3.3c0.3-0.1 5 6 4.6 6.5h-0.1c-0.6 0.4-8.2-1-8.1-1.7c0-0.5 1.9-0.6 2.4-1.5z" />
	<path id="Layer" class="s5" d="m61.5 41.1c1.3 0.3 3.5 1.4 5.7 3.2c-0.6 0.4-8.2-1-8.1-1.7c0-0.5 1.9-0.6 2.4-1.5z" />
</svg>